<?xml version="1.0" standalone="no"?>
<!DOCTYPE svg PUBLIC "-//W3C//DTD SVG 20010904//EN"
 "http://www.w3.org/TR/2001/REC-SVG-20010904/DTD/svg10.dtd">
<svg version="1.0" xmlns="http://www.w3.org/2000/svg"
 width="500.000000pt" height="500.000000pt" viewBox="0 0 500.000000 500.000000"
 preserveAspectRatio="xMidYMid meet">
<metadata>
Created by potrace 1.14, written by Peter Selinger 2001-2017
</metadata>
<g transform="translate(0.000000,500.000000) scale(0.100000,-0.100000)"
fill="#000000" stroke="none">
<path d="M4017 4365 c-40 -14 -82 -47 -99 -78 -5 -10 -12 -53 -14 -95 -6 -99
-21 -165 -51 -227 -26 -52 -97 -125 -147 -152 -26 -14 -29 -13 -44 9 -8 13
-51 58 -95 101 -255 248 -659 386 -972 332 -49 -9 -86 -10 -124 -3 -66 12
-255 14 -336 4 -193 -23 -389 -94 -560 -204 -168 -107 -284 -217 -462 -436
-75 -92 -218 -348 -286 -511 -84 -202 -168 -517 -192 -720 -3 -27 -8 -63 -10
-80 -18 -119 -23 -391 -11 -555 21 -289 104 -647 184 -794 95 -176 295 -268
757 -351 119 -21 494 -28 640 -12 616 67 1174 331 1555 735 233 247 376 525
428 834 7 44 8 246 2 438 -2 58 -2 134 -1 170 5 127 -17 265 -61 394 -39 115
-138 293 -202 365 l-21 23 35 26 c70 52 157 149 195 217 62 111 84 201 99 408
3 30 -13 76 -36 110 -36 51 -109 74 -171 52z m-1017 -455 c96 -27 207 -82 283
-139 96 -73 92 -68 77 -86 -36 -43 -206 -137 -273 -151 -10 -2 -26 -5 -35 -8
-54 -16 -215 -23 -272 -11 -14 3 -40 8 -59 11 -105 20 -255 95 -352 176 -59
49 -60 50 -42 70 50 57 205 135 313 158 74 15 275 4 360 -20z m-1020 -51 c-30
-104 4 -204 104 -304 267 -268 620 -399 977 -361 l65 7 -12 -73 c-12 -70 -12
-269 1 -333 50 -256 155 -460 331 -642 97 -100 175 -143 250 -137 49 4 105 14
117 21 7 4 8 0 3 -13 -5 -10 -11 -28 -14 -38 -11 -38 -75 -162 -119 -231 -274
-423 -776 -719 -1408 -830 -115 -20 -470 -27 -603 -12 -218 25 -500 107 -562
163 -30 27 -43 52 -68 131 -34 107 -58 198 -67 253 -3 19 -7 46 -10 60 -26
139 -37 276 -36 460 1 102 3 201 6 220 2 19 7 58 10 85 11 96 16 130 31 205
135 674 494 1202 939 1381 38 15 71 27 72 25 2 -1 -2 -18 -7 -37z m1698 -517
c62 -78 133 -219 158 -312 19 -68 25 -283 11 -348 -21 -96 -111 -270 -160
-310 -22 -18 -29 -12 -91 72 -174 234 -222 528 -124 760 39 93 118 206 142
206 6 0 35 -31 64 -68z"/>
<path d="M1893 3345 c-50 -26 -179 -165 -191 -206 -33 -120 76 -232 194 -199
32 9 62 31 115 84 90 89 109 119 109 174 0 91 -57 153 -145 159 -32 2 -61 -2
-82 -12z"/>
<path d="M1513 2732 c-42 -21 -192 -172 -215 -216 -24 -48 -20 -115 9 -155 30
-39 82 -71 118 -71 73 0 92 11 193 111 109 108 129 143 118 211 -17 104 -132
166 -223 120z"/>
<path d="M2522 2725 c-38 -17 -180 -158 -193 -193 -48 -126 70 -254 196 -212
32 11 134 101 189 167 42 51 37 146 -11 198 -49 52 -118 67 -181 40z"/>
<path d="M2005 2196 c-40 -17 -171 -149 -191 -192 -29 -62 -4 -147 55 -188 47
-33 107 -39 158 -16 42 19 179 157 193 196 15 40 12 84 -11 130 -34 71 -128
103 -204 70z"/>
<path d="M3085 2134 c-43 -22 -153 -132 -176 -176 -64 -123 46 -260 181 -226
51 13 205 164 219 215 20 71 -16 155 -79 188 -37 19 -107 19 -145 -1z"/>
<path d="M2542 1738 c-49 -13 -228 -195 -241 -245 -34 -125 61 -226 188 -200
37 7 58 23 138 102 95 95 123 140 123 196 0 99 -107 176 -208 147z"/>
<path d="M1502 1706 c-39 -18 -181 -156 -211 -206 -46 -77 -15 -182 66 -220
51 -24 81 -25 129 -5 41 17 184 152 215 202 43 69 24 167 -41 213 -40 29 -113
36 -158 16z"/>
</g>
</svg>
