<?xml version="1.0" standalone="no"?>
<!DOCTYPE svg PUBLIC "-//W3C//DTD SVG 20010904//EN"
 "http://www.w3.org/TR/2001/REC-SVG-20010904/DTD/svg10.dtd">
<svg version="1.0" xmlns="http://www.w3.org/2000/svg"
 width="720.000000pt" height="720.000000pt" viewBox="0 0 720.000000 720.000000"
 preserveAspectRatio="xMidYMid meet">
<metadata>
Created by potrace 1.14, written by Peter Selinger 2001-2017
</metadata>
<g transform="translate(0.000000,720.000000) scale(0.100000,-0.100000)"
fill="#000000" stroke="none">
<path d="M3970 7185 c-83 -23 -157 -63 -185 -99 -30 -40 -33 -82 -5 -91 27 -9
68 -97 87 -191 13 -66 14 -93 5 -165 -21 -156 -42 -204 -241 -549 -62 -107
-161 -293 -220 -412 l-108 -217 -13 42 c-40 136 -153 281 -290 374 -132 89
-252 121 -485 130 -283 11 -536 -50 -764 -184 -51 -30 -47 -34 48 -52 129 -25
300 -96 390 -162 l45 -32 -95 -23 c-165 -41 -312 -58 -499 -58 -158 -1 -180 1
-229 21 -76 31 -116 61 -147 110 -15 24 -29 42 -31 39 -8 -7 36 -109 77 -178
97 -162 275 -307 454 -368 l49 -16 -79 -46 c-177 -102 -319 -233 -423 -388
-187 -279 -301 -700 -301 -1109 0 -466 145 -1045 400 -1591 37 -80 191 -397
342 -705 151 -308 293 -599 316 -647 88 -183 230 -366 363 -466 166 -125 388
-177 585 -136 210 43 714 313 1134 607 818 573 1370 1160 1675 1782 78 159
109 250 145 425 76 369 65 719 -31 1013 -39 118 -104 254 -162 340 -26 37 -47
69 -47 71 0 3 26 10 58 16 96 20 213 60 286 98 73 38 108 79 104 122 -3 24 -7
25 -86 32 -172 14 -309 64 -476 173 l-88 58 69 27 c245 95 397 308 411 576 2
55 2 126 -2 157 l-7 56 -58 -57 c-105 -105 -260 -177 -453 -213 -62 -11 -158
-32 -213 -46 -55 -14 -109 -27 -120 -30 -16 -3 -25 6 -45 44 -38 74 -160 187
-249 231 -71 35 -80 37 -175 37 -115 0 -193 -22 -291 -80 -32 -19 -59 -35 -60
-35 -2 0 0 38 2 83 8 125 -5 297 -23 297 -8 0 -14 -8 -14 -19 0 -32 -83 -97
-190 -150 -97 -47 -385 -150 -394 -140 -7 7 22 134 50 217 33 100 113 268 224
468 50 88 107 199 129 245 70 149 115 338 126 529 3 52 8 107 11 122 11 48 -3
76 -49 99 -54 29 -162 34 -237 14z m-2182 -2607 c45 -49 54 -125 26 -231 -21
-83 -49 -139 -96 -192 -71 -81 -129 -96 -171 -45 -84 99 -47 289 83 433 47 52
55 57 94 57 31 0 48 -6 64 -22z m1080 -240 c45 -49 54 -125 26 -231 -21 -83
-49 -139 -96 -192 -71 -81 -129 -96 -171 -45 -84 99 -47 289 83 433 47 52 55
57 94 57 31 0 48 -6 64 -22z m880 -40 c45 -49 54 -125 26 -231 -21 -83 -49
-139 -96 -192 -71 -81 -129 -96 -171 -45 -84 99 -47 289 83 433 47 52 55 57
94 57 31 0 48 -6 64 -22z m1850 -480 c45 -49 54 -125 26 -231 -21 -83 -49
-139 -96 -192 -71 -81 -129 -96 -171 -45 -84 99 -47 289 83 433 47 52 55 57
94 57 31 0 48 -6 64 -22z m-1140 -40 c45 -49 54 -125 26 -231 -21 -83 -49
-139 -96 -192 -71 -81 -129 -96 -171 -45 -84 99 -47 289 83 433 47 52 55 57
94 57 31 0 48 -6 64 -22z m-2510 -220 c45 -49 54 -125 26 -231 -21 -83 -49
-139 -96 -192 -71 -81 -129 -96 -171 -45 -84 99 -47 289 83 433 47 52 55 57
94 57 31 0 48 -6 64 -22z m1060 -440 c45 -49 54 -125 26 -231 -21 -83 -49
-139 -96 -192 -71 -81 -129 -96 -171 -45 -84 99 -47 289 83 433 47 52 55 57
94 57 31 0 48 -6 64 -22z m1890 -240 c45 -49 54 -125 26 -231 -21 -83 -49
-139 -96 -192 -71 -81 -129 -96 -171 -45 -84 99 -47 289 83 433 47 52 55 57
94 57 31 0 48 -6 64 -22z m-1110 -100 c45 -49 54 -125 26 -231 -21 -83 -49
-139 -96 -192 -71 -81 -129 -96 -171 -45 -84 99 -47 289 83 433 47 52 55 57
94 57 31 0 48 -6 64 -22z m-1730 -290 c45 -49 54 -125 26 -231 -21 -83 -49
-139 -96 -192 -71 -81 -129 -96 -171 -45 -84 99 -47 289 83 433 47 52 55 57
94 57 31 0 48 -6 64 -22z m2250 -410 c45 -49 54 -125 26 -231 -21 -83 -49
-139 -96 -192 -71 -81 -129 -96 -171 -45 -84 99 -47 289 83 433 47 52 55 57
94 57 31 0 48 -6 64 -22z m890 -20 c45 -49 54 -125 26 -231 -21 -83 -49 -139
-96 -192 -71 -81 -129 -96 -171 -45 -84 99 -47 289 83 433 47 52 55 57 94 57
31 0 48 -6 64 -22z m-2290 -140 c45 -49 54 -125 26 -231 -21 -83 -49 -139 -96
-192 -71 -81 -129 -96 -171 -45 -84 99 -47 289 83 433 47 52 55 57 94 57 31 0
48 -6 64 -22z m660 -810 c45 -49 54 -125 26 -231 -21 -83 -49 -139 -96 -192
-71 -81 -129 -96 -171 -45 -84 99 -47 289 83 433 47 52 55 57 94 57 31 0 48
-6 64 -22z m-880 -230 c45 -49 54 -125 26 -231 -21 -83 -49 -139 -96 -192 -71
-81 -129 -96 -171 -45 -84 99 -47 289 83 433 47 52 55 57 94 57 31 0 48 -6 64
-22z"/>
</g>
</svg>
